<svg width="186" height="29" viewBox="0 0 186 29" fill="none" xmlns="http://www.w3.org/2000/svg">
<path d="M0 20.6115V10.381L3.34954 12.4033V18.7379L9.5 22.4554L12.734 20.6115V24.5074L9.5 26.5L0 20.6115Z" fill="white"/>
<path d="M9.5 14.1283L0 8.23978L9.5 2.5L12.5608 4.40335L6.20821 8.23978L9.5 10.2026L15.766 6.33643L19 8.23978L9.5 14.1283Z" fill="white"/>
<path d="M6.20821 18.3513V14.1283L9.5 16.1208L19 10.381V20.6115L15.5638 22.723V16.1208L13.8024 19.1245L12.734 18.3513L9.44225 20.4628L6.20821 18.3513Z" fill="white"/>
<path d="M32.7216 23V5.54545H35.8835V20.3494H43.571V23H32.7216ZM53.8027 17.4943V9.90909H56.888V23H53.8965V20.6733H53.7601C53.4647 21.4062 52.9789 22.0057 52.3027 22.4716C51.6323 22.9375 50.8056 23.1705 49.8226 23.1705C48.9647 23.1705 48.2061 22.9801 47.547 22.5994C46.8936 22.2131 46.3823 21.6534 46.013 20.9205C45.6436 20.1818 45.459 19.2898 45.459 18.2443V9.90909H48.5442V17.767C48.5442 18.5966 48.7715 19.2557 49.226 19.7443C49.6806 20.233 50.2772 20.4773 51.0158 20.4773C51.4703 20.4773 51.9107 20.3665 52.3368 20.1449C52.763 19.9233 53.1124 19.5938 53.3851 19.1562C53.6635 18.7131 53.8027 18.1591 53.8027 17.4943ZM61.8633 9.90909L64.5053 14.7415L67.19 9.90909H70.4542L66.5082 16.4545L70.5224 23H67.2752L64.5053 18.2869L61.761 23H58.4883L62.4769 16.4545L58.5905 9.90909H61.8633ZM77.4238 23.2557C76.1113 23.2557 74.9778 22.983 74.0232 22.4375C73.0744 21.8864 72.3443 21.108 71.8329 20.1023C71.3215 19.0909 71.0659 17.9006 71.0659 16.5312C71.0659 15.1847 71.3215 14.0028 71.8329 12.9858C72.3499 11.9631 73.0715 11.1676 73.9977 10.5994C74.9238 10.0256 76.0119 9.73864 77.2619 9.73864C78.0687 9.73864 78.8301 9.86932 79.546 10.1307C80.2676 10.3864 80.9039 10.7841 81.4551 11.3239C82.0119 11.8636 82.4494 12.5511 82.7676 13.3864C83.0857 14.2159 83.2448 15.2045 83.2448 16.3523V17.2983H72.5147V15.2188H80.2874C80.2818 14.6278 80.1539 14.1023 79.9039 13.642C79.6539 13.1761 79.3045 12.8097 78.8556 12.5426C78.4124 12.2756 77.8954 12.142 77.3045 12.142C76.6738 12.142 76.1198 12.2955 75.6426 12.6023C75.1653 12.9034 74.7931 13.3011 74.5261 13.7955C74.2647 14.2841 74.1312 14.821 74.1255 15.4062V17.2216C74.1255 17.983 74.2647 18.6364 74.5431 19.1818C74.8215 19.7216 75.2107 20.1364 75.7107 20.4261C76.2107 20.7102 76.796 20.8523 77.4664 20.8523C77.9153 20.8523 78.3215 20.7898 78.6852 20.6648C79.0488 20.5341 79.3641 20.3438 79.6312 20.0938C79.8982 19.8438 80.0999 19.5341 80.2363 19.1648L83.117 19.4886C82.9352 20.25 82.5886 20.9148 82.0772 21.483C81.5715 22.0455 80.9238 22.483 80.134 22.7955C79.3443 23.1023 78.4409 23.2557 77.4238 23.2557ZM85.2713 5.54545H89.1406L94.3224 18.1932H94.527L99.7088 5.54545H103.578V23H100.544V11.0085H100.382L95.5582 22.9489H93.2912L88.4673 10.983H88.3054V23H85.2713V5.54545ZM111.875 23.2557C110.597 23.2557 109.489 22.9744 108.551 22.4119C107.614 21.8494 106.887 21.0625 106.369 20.0511C105.858 19.0398 105.602 17.858 105.602 16.5057C105.602 15.1534 105.858 13.9687 106.369 12.9517C106.887 11.9347 107.614 11.1449 108.551 10.5824C109.489 10.0199 110.597 9.73864 111.875 9.73864C113.154 9.73864 114.262 10.0199 115.199 10.5824C116.137 11.1449 116.861 11.9347 117.372 12.9517C117.889 13.9687 118.148 15.1534 118.148 16.5057C118.148 17.858 117.889 19.0398 117.372 20.0511C116.861 21.0625 116.137 21.8494 115.199 22.4119C114.262 22.9744 113.154 23.2557 111.875 23.2557ZM111.892 20.7841C112.585 20.7841 113.165 20.5937 113.631 20.2131C114.097 19.8267 114.443 19.3097 114.671 18.6619C114.904 18.0142 115.02 17.2926 115.02 16.4972C115.02 15.696 114.904 14.9716 114.671 14.3239C114.443 13.6705 114.097 13.1506 113.631 12.7642C113.165 12.3778 112.585 12.1847 111.892 12.1847C111.182 12.1847 110.591 12.3778 110.119 12.7642C109.654 13.1506 109.304 13.6705 109.071 14.3239C108.844 14.9716 108.73 15.696 108.73 16.4972C108.73 17.2926 108.844 18.0142 109.071 18.6619C109.304 19.3097 109.654 19.8267 110.119 20.2131C110.591 20.5937 111.182 20.7841 111.892 20.7841ZM125.757 23.2557C124.45 23.2557 123.328 22.9688 122.39 22.3949C121.458 21.821 120.74 21.0284 120.234 20.017C119.734 19 119.484 17.8295 119.484 16.5057C119.484 15.1761 119.74 14.0028 120.251 12.9858C120.762 11.9631 121.484 11.1676 122.416 10.5994C123.353 10.0256 124.461 9.73864 125.74 9.73864C126.802 9.73864 127.743 9.93466 128.561 10.3267C129.385 10.7131 130.041 11.2614 130.529 11.9716C131.018 12.6761 131.296 13.5 131.365 14.4432H128.416C128.296 13.8125 128.012 13.2869 127.564 12.8665C127.12 12.4403 126.527 12.2273 125.782 12.2273C125.152 12.2273 124.598 12.3977 124.12 12.7386C123.643 13.0739 123.271 13.5568 123.004 14.1875C122.743 14.8182 122.612 15.5739 122.612 16.4545C122.612 17.3466 122.743 18.1136 123.004 18.7557C123.265 19.392 123.632 19.8835 124.103 20.2301C124.581 20.571 125.14 20.7415 125.782 20.7415C126.237 20.7415 126.643 20.6562 127.001 20.4858C127.365 20.3097 127.669 20.0568 127.913 19.7273C128.157 19.3977 128.325 18.9972 128.416 18.5256H131.365C131.291 19.4517 131.018 20.2727 130.546 20.9886C130.075 21.6989 129.433 22.2557 128.62 22.6591C127.808 23.0568 126.853 23.2557 125.757 23.2557ZM135.991 18.892L135.982 15.1676H136.476L141.181 9.90909H144.786L138.999 16.3523H138.36L135.991 18.892ZM133.178 23V5.54545H136.263V23H133.178ZM141.394 23L137.133 17.0426L139.212 14.8693L145.084 23H141.394ZM154.466 17.4943V9.90909H157.551V23H154.56V20.6733H154.423C154.128 21.4062 153.642 22.0057 152.966 22.4716C152.295 22.9375 151.469 23.1705 150.486 23.1705C149.628 23.1705 148.869 22.9801 148.21 22.5994C147.557 22.2131 147.045 21.6534 146.676 20.9205C146.307 20.1818 146.122 19.2898 146.122 18.2443V9.90909H149.207V17.767C149.207 18.5966 149.435 19.2557 149.889 19.7443C150.344 20.233 150.94 20.4773 151.679 20.4773C152.133 20.4773 152.574 20.3665 153 20.1449C153.426 19.9233 153.776 19.5938 154.048 19.1562C154.327 18.7131 154.466 18.1591 154.466 17.4943ZM160.004 27.9091V9.90909H163.038V12.0739H163.217C163.376 11.7557 163.6 11.4176 163.89 11.0597C164.18 10.696 164.572 10.3864 165.066 10.1307C165.56 9.86932 166.191 9.73864 166.958 9.73864C167.97 9.73864 168.882 9.99716 169.694 10.5142C170.512 11.0256 171.16 11.7841 171.637 12.7898C172.12 13.7898 172.362 15.017 172.362 16.4716C172.362 17.9091 172.126 19.1307 171.654 20.1364C171.183 21.142 170.541 21.9091 169.728 22.4375C168.916 22.9659 167.995 23.2301 166.967 23.2301C166.217 23.2301 165.595 23.1051 165.1 22.8551C164.606 22.6051 164.208 22.304 163.907 21.9517C163.612 21.5937 163.382 21.2557 163.217 20.9375H163.089V27.9091H160.004ZM163.029 16.4545C163.029 17.3011 163.149 18.0426 163.387 18.679C163.632 19.3153 163.981 19.8125 164.435 20.1705C164.896 20.5227 165.453 20.6989 166.106 20.6989C166.788 20.6989 167.359 20.517 167.819 20.1534C168.279 19.7841 168.626 19.2812 168.859 18.6449C169.097 18.0028 169.217 17.2727 169.217 16.4545C169.217 15.642 169.1 14.9205 168.867 14.2898C168.634 13.6591 168.288 13.1648 167.828 12.8068C167.367 12.4489 166.793 12.2699 166.106 12.2699C165.447 12.2699 164.887 12.4432 164.427 12.7898C163.967 13.1364 163.617 13.6222 163.379 14.2472C163.146 14.8722 163.029 15.608 163.029 16.4545ZM184.63 13.3693L181.818 13.6761C181.738 13.392 181.599 13.125 181.4 12.875C181.207 12.625 180.946 12.4233 180.616 12.2699C180.287 12.1165 179.883 12.0398 179.406 12.0398C178.764 12.0398 178.224 12.179 177.787 12.4574C177.355 12.7358 177.142 13.0966 177.147 13.5398C177.142 13.9205 177.281 14.2301 177.565 14.4688C177.855 14.7074 178.332 14.9034 178.997 15.0568L181.23 15.5341C182.468 15.8011 183.389 16.2244 183.991 16.804C184.599 17.3835 184.906 18.142 184.912 19.0795C184.906 19.9034 184.664 20.6307 184.187 21.2614C183.715 21.8864 183.059 22.375 182.218 22.7273C181.377 23.0795 180.412 23.2557 179.321 23.2557C177.718 23.2557 176.429 22.9205 175.451 22.25C174.474 21.5739 173.892 20.6335 173.704 19.429L176.713 19.1392C176.849 19.7301 177.139 20.1761 177.582 20.4773C178.025 20.7784 178.602 20.929 179.312 20.929C180.045 20.929 180.633 20.7784 181.076 20.4773C181.525 20.1761 181.75 19.804 181.75 19.3608C181.75 18.9858 181.605 18.6761 181.315 18.4318C181.031 18.1875 180.588 18 179.985 17.8693L177.752 17.4006C176.497 17.1392 175.568 16.6989 174.965 16.0795C174.363 15.4545 174.065 14.6648 174.071 13.7102C174.065 12.9034 174.284 12.2045 174.727 11.6136C175.176 11.017 175.798 10.5568 176.593 10.233C177.394 9.90341 178.318 9.73864 179.363 9.73864C180.897 9.73864 182.105 10.0653 182.985 10.7188C183.872 11.3722 184.42 12.2557 184.63 13.3693Z" fill="white"/>
</svg>
